<svg xmlns="http://www.w3.org/2000/svg" viewBox="0 0 929.7 213.8" role="img" aria-labelledby="title">
  <title id="title">AFRY</title>
  <g fill="#121212">
    <path d="M475.4 178.2V35.6h111.2v16.6h-90.4l-3.3 3.3V100l3.3 3.3h73v15.3h-73l-3.3 3.3v56.3z"/>
    <path d="M414.2 178.2l-18.9-42.8H339l6.8-15.3h42.8L361 59.3h-4.9l-53 118.9h-18l65.7-142.6h16.9l65.5 142.6z"/>
    <path d="M746.4 178.2l-40.8-59.6h-39.4v-15.3H716c15.7 0 28-11.5 28-26.3 0-6.2-2.5-12.4-7-17.1-7.9-7.9-17.5-9-25.9-9H654l-3.3 3.3v124h-17.5V35.6h77.9c17.4 0 30.3 4.6 39.4 14.2 7 7.4 10.7 16.9 10.7 27.4 0 18.6-12.5 33.5-32.6 39-.5.1-1.7.5-3.8.9l-1.1.2 42.3 60.8h-19.6z"/>
    <path d="M853.1 178.2v-58.3l-59.2-84.3H814l45.9 66.1h4l45.7-66.1h20.1l-59.1 84.3v58.3z"/>
    <path d="M106.9 0C47.9 0 0 47.9 0 106.9s47.9 106.9 106.9 106.9 106.9-47.9 106.9-106.9S166 0 106.9 0zm0 11.9c20.4 0 39.3 6.4 54.8 17.4L15 82.7c10.7-40.8 47.8-70.8 91.9-70.8zM74.7 117.3l-55.5-22v-1.5l142.1-51.7.8 1.3-86.8 86.8 33.5 71.7h-1.8c-52.5 0-95-42.6-95-95v-1.8l53.7 21.3zm97-64.7l-51.8 142.2h-1.5l-29-62.1 80.9-80.9zm-40.5 146.2l53.4-146.7c11 15.5 17.4 34.4 17.4 54.8 0 44.1-30.1 81.2-70.8 91.9z"/>
  </g>
</svg>
