<svg width="251" height="36" viewBox="0 0 251 36" xmlns="http://www.w3.org/2000/svg" xmlns:xlink="http://www.w3.org/1999/xlink">
  <defs>
    <path id="a" d="M0 .146h203.309v34.273H0z"/>
    <path id="c" d="M.446.42h162.977v15.984H.446z"/>
  </defs>
  <g fill="none" fill-rule="evenodd">
    <path d="M233.042 8.277c0-4.399 3.569-7.967 7.975-7.967 4.394 0 7.962 3.568 7.962 7.967 0 4.404-3.568 7.972-7.962 7.972a7.972 7.972 0 0 1-7.975-7.972M123.38 8.352c0 2.718-2.176 4.723-4.856 4.723-2.514 0-4.751-2.013-4.751-4.723 0-2.72 2.355-4.738 4.751-4.738 2.68 0 4.855 2.017 4.855 4.738M157.542 8.277c0 3.322-2.67 5.805-5.963 5.805-3.305 0-5.827-2.59-5.827-5.805 0-3.352 2.749-5.828 5.827-5.828 3.293 0 5.963 2.504 5.963 5.828" fill="#fff"/>
    <g transform="translate(0 1.268)">
      <mask id="b" fill="#fff"><use xlink:href="#a"/></mask>
      <path d="M203.309 7.073c0 1.717-.61 3.293-1.623 4.521-1.304 1.582-3.277 2.377-5.488 2.377-4.218 0-6.806-3.493-6.806-6.912 0-3.793 3.082-6.913 6.806-6.913 2.275 0 4.299.882 5.6 2.544a7.08 7.08 0 0 1 1.51 4.383" fill="#fff" mask="url(#b)"/>
      <path d="M0 29.178h4.82c.02 1.671.694 1.8 2.082 1.8h5.905c1.018 0 2.062-.107 2.062-1.323 0-1.367-.565-1.454-6.772-1.454-7.25 0-8.074-.868-8.074-4.732 0-2.844.261-5.034 6.338-5.034h6.729c5.554 0 6.076 1.887 6.076 4.643v.5h-4.818c0-1.15-.131-1.628-2.344-1.628h-5.34c-1.086 0-1.824.37-1.824 1.214 0 1.37.587 1.413 5.751 1.392 7.491-.022 9.227.433 9.227 5.011 0 4.233-1.433 4.928-7.836 4.928H6.143C1.758 34.495 0 33.67 0 30.263v-1.085" fill="#0A417A" mask="url(#b)"/>
    </g>
    <path fill="#0A417A" d="M20.48 19.875h4.71l3.343 11.546h.044l3.993-11.546h4.473l3.993 11.546h.042l3.343-11.546h4.71l-5.1 15.714h-5.535l-3.667-10.375h-.045L31.118 35.59h-5.536L20.48 19.875M54.875 29.426h6.164l-3.125-5.904-3.039 5.904zm-.087-9.551h6.272l8.64 15.714h-5.363l-1.498-2.778h-9.765l-1.411 2.778H46.28l8.508-15.714z"/>
    <g transform="translate(65.92 19.283)">
      <mask id="d" fill="#fff"><use xlink:href="#c"/></mask>
      <path fill="#0A417A" mask="url(#d)" d="M.446.592H18.81l-.002 3.907h-6.772v11.807H7.217V4.5H.447V.592M20.025 6.105c0-4.6 2.583-5.685 6.923-5.685h5.666c6.858 0 7.746 1.475 7.704 5.925H35.5V5.91c0-1.128-.824-1.454-2.258-1.454H27.99c-2.54 0-3.017 1.193-3.017 3.148v1.69c0 2.279.477 3.15 2.756 3.15h5.146c2.17 0 2.82-.219 2.82-2.17h4.819v1.475c0 2.647-.956 4.73-5.795 4.73h-7.77c-4.341 0-6.924-1.084-6.924-5.685V6.105M42.878.592h4.82v5.6h10.156v-5.6h4.819v15.714h-4.819V10.36H47.698v5.947h-4.82V.592M75.218 6.105c0-4.6 2.582-5.685 6.921-5.685h7.25c5.47 0 6.23 1.973 6.23 5.034v.499h-4.733c0-1.562-.889-1.758-2.431-1.758h-5.23c-2.43 0-3.06.587-3.06 3.278v1.953c0 2.693.63 3.277 3.06 3.277h5.143c1.258 0 2.518-.195 2.518-1.715v-.454h-5.988V7.278h10.808v4.47c0 4.515-2.347 4.732-7.771 4.732h-5.796c-4.34 0-6.921-1.085-6.921-5.686V6.105M102.887 8.32h7.966c1.303 0 1.78-.521 1.78-1.65v-.52c0-1.39-.693-1.651-2.213-1.651h-7.533v3.82zM98.07.592h14.544c3.712 0 4.708 1.846 4.708 4.668v.997c0 2.106-.475 3.343-2.69 3.864v.044c1.431.26 2.624.888 2.624 3.473v2.668h-4.818v-1.889c0-1.649-.475-2.192-1.973-2.192h-7.577v4.081H98.07V.592zM124.64 9.295c0 2.278.475 3.149 2.754 3.149h6.162c2.28 0 2.759-.871 2.759-3.15v-1.69c0-1.954-.48-3.148-3.016-3.148h-5.645c-2.54 0-3.015 1.194-3.015 3.148v1.69zm-4.952-3.19c0-4.6 2.583-5.685 6.928-5.685h7.722c4.343 0 6.923 1.085 6.923 5.685v4.69c0 4.6-2.58 5.685-6.923 5.685h-7.722c-4.345 0-6.928-1.085-6.928-5.686V6.105zM143.63.592h4.819v9.074c0 1.995.715 2.778 2.69 2.778h4.775c1.976 0 2.69-.783 2.69-2.778V.592h4.819v10.115c0 3.906-2.017 5.773-6.448 5.773h-6.901c-4.426 0-6.444-1.867-6.444-5.773V.592"/>
    </g>
    <path d="M236.872 27.732h7.488c1.13 0 1.564-.738 1.564-1.67v-.61c0-1.062-.52-1.67-1.975-1.67h-7.077v3.95zm-4.817-7.857h13.13c4.58 0 5.687 2.3 5.687 5.384v1.346c0 2.344-1.02 5.035-4.427 5.035h-9.573v3.949h-4.817V19.875z" fill="#0A417A"/>
    <path d="M199.935 9.897h-2.97V6.929h2.97V3.96h1.863A7.095 7.095 0 0 0 196.2 1.23a7.113 7.113 0 1 0 5.484 11.637h-1.749v-2.97M155.123 7.149h2.314a6.017 6.017 0 0 0-11.926 1.128 6.018 6.018 0 0 0 11.907 1.246h-2.295V7.149M121.876 7.223h1.376a4.923 4.923 0 0 0-4.788-3.795 4.925 4.925 0 0 0 0 9.847 4.919 4.919 0 0 0 4.758-3.677h-1.346V7.223M242.87 6.421v-3.71h-3.713v3.71h-3.71v3.712h3.71v3.71h3.713v-3.71h3.712V6.42h-3.712zM232.81 8.277a8.206 8.206 0 1 1 16.408 0 8.206 8.206 0 0 1-16.408 0z" fill="#D82332"/>
  </g>
</svg>
